<mxfile host="app.diagrams.net" modified="2021-02-02T19:59:54.260Z" agent="5.0 (Windows NT 10.0; Win64; x64) AppleWebKit/537.36 (KHTML, like Gecko) Chrome/88.0.4324.104 Safari/537.36" etag="rjbxl2Yqt1jwojSaPj91" version="14.2.4" type="github">
  <diagram id="sgSy6tTtdPwYPUss9doM" name="Page-1">
    <mxGraphModel dx="474" dy="254" grid="1" gridSize="10" guides="1" tooltips="1" connect="1" arrows="1" fold="1" page="1" pageScale="1" pageWidth="827" pageHeight="1169" math="0" shadow="0">
      <root>
        <mxCell id="0" />
        <mxCell id="1" parent="0" />
        <mxCell id="rDjEl36lT4-2UWScgR_d-5" value="" style="shape=image;imageAspect=0;aspect=fixed;verticalLabelPosition=bottom;verticalAlign=top;image=https://www.notion.so/image/https%3A%2F%2Fs3-us-west-2.amazonaws.com%2Fsecure.notion-static.com%2F0a3c3be0-12a9-419d-b2eb-500989369237%2FUntitled.png?table=block&amp;id=02425e83-3895-4d59-9ef0-4bac99e9ff4b&amp;spaceId=b698c29e-e285-4e0c-9a58-23a2f8b05372&amp;width=3840&amp;userId=c5971e59-7f00-4607-b7a1-f1044edf1aaa&amp;cache=v2;" vertex="1" parent="1">
          <mxGeometry x="180" y="40" width="520" height="336" as="geometry" />
        </mxCell>
        <mxCell id="rDjEl36lT4-2UWScgR_d-17" value="&lt;b style=&quot;font-size: 10px&quot;&gt;&lt;font face=&quot;Verdana&quot; color=&quot;#ff3333&quot; style=&quot;font-size: 10px&quot;&gt;5 V&lt;br&gt;power&lt;br&gt;2 o 4&lt;/font&gt;&lt;/b&gt;" style="text;html=1;resizable=0;autosize=1;align=center;verticalAlign=middle;points=[];fillColor=none;strokeColor=none;rounded=0;fontFamily=Courier New;" vertex="1" parent="1">
          <mxGeometry x="228" y="441" width="50" height="50" as="geometry" />
        </mxCell>
        <mxCell id="rDjEl36lT4-2UWScgR_d-23" value="" style="endArrow=oval;html=1;strokeWidth=6;startArrow=oval;startFill=1;endFill=1;endSize=9;startSize=9;fontFamily=Courier New;" edge="1" parent="1">
          <mxGeometry relative="1" as="geometry">
            <mxPoint x="298" y="317" as="sourcePoint" />
            <mxPoint x="298" y="437" as="targetPoint" />
          </mxGeometry>
        </mxCell>
        <mxCell id="rDjEl36lT4-2UWScgR_d-27" value="" style="endArrow=oval;html=1;strokeWidth=6;startArrow=oval;startFill=1;endFill=1;endSize=9;startSize=9;strokeColor=#FF1919;fontFamily=Courier New;" edge="1" parent="1">
          <mxGeometry relative="1" as="geometry">
            <mxPoint x="255.82999999999998" y="316" as="sourcePoint" />
            <mxPoint x="255.82999999999998" y="436" as="targetPoint" />
          </mxGeometry>
        </mxCell>
        <mxCell id="rDjEl36lT4-2UWScgR_d-28" value="" style="endArrow=oval;html=1;strokeWidth=6;startArrow=oval;startFill=1;endFill=1;endSize=9;startSize=9;fontFamily=Courier New;strokeColor=#33FF33;" edge="1" parent="1">
          <mxGeometry relative="1" as="geometry">
            <mxPoint x="340" y="317" as="sourcePoint" />
            <mxPoint x="340" y="437" as="targetPoint" />
          </mxGeometry>
        </mxCell>
        <mxCell id="rDjEl36lT4-2UWScgR_d-29" value="" style="endArrow=oval;html=1;strokeWidth=6;startArrow=oval;startFill=1;endFill=1;endSize=9;startSize=9;fontFamily=Courier New;strokeColor=#FFFF00;" edge="1" parent="1">
          <mxGeometry relative="1" as="geometry">
            <mxPoint x="382" y="318" as="sourcePoint" />
            <mxPoint x="382" y="438" as="targetPoint" />
          </mxGeometry>
        </mxCell>
        <mxCell id="rDjEl36lT4-2UWScgR_d-30" value="&lt;font face=&quot;Verdana&quot; style=&quot;font-size: 10px&quot;&gt;&lt;b&gt;GND&lt;br&gt;6 o 14&lt;br&gt;&lt;/b&gt;&lt;/font&gt;" style="text;html=1;resizable=0;autosize=1;align=center;verticalAlign=middle;points=[];fillColor=none;strokeColor=none;rounded=0;fontFamily=Courier New;" vertex="1" parent="1">
          <mxGeometry x="271" y="446" width="50" height="40" as="geometry" />
        </mxCell>
        <mxCell id="rDjEl36lT4-2UWScgR_d-32" value="&lt;font face=&quot;Verdana&quot; style=&quot;font-size: 10px&quot;&gt;&lt;b&gt;GND&lt;br&gt;6 o 14&lt;br&gt;&lt;/b&gt;&lt;/font&gt;" style="text;html=1;resizable=0;autosize=1;align=center;verticalAlign=middle;points=[];fillColor=none;strokeColor=none;rounded=0;fontFamily=Courier New;" vertex="1" parent="1">
          <mxGeometry x="313" y="446" width="50" height="40" as="geometry" />
        </mxCell>
      </root>
    </mxGraphModel>
  </diagram>
</mxfile>
